<svg width="392" height="393" viewBox="0 0 392 393" fill="none" xmlns="http://www.w3.org/2000/svg">
<path fill-rule="evenodd" clip-rule="evenodd" d="M197.405 326.119C268.466 326.119 326.072 268.513 326.072 197.452C326.072 126.392 268.466 68.7856 197.405 68.7856C126.344 68.7856 68.7383 126.392 68.7383 197.452C68.7383 268.513 126.344 326.119 197.405 326.119ZM197.405 328.119C269.57 328.119 328.072 269.618 328.072 197.452C328.072 125.287 269.57 66.7856 197.405 66.7856C125.24 66.7856 66.7383 125.287 66.7383 197.452C66.7383 269.618 125.24 328.119 197.405 328.119Z" fill="white"/>
<path fill-rule="evenodd" clip-rule="evenodd" d="M196 135.632L196 0.75L198 0.75L198 135.632L196 135.632Z" fill="white"/>
<path fill-rule="evenodd" clip-rule="evenodd" d="M196 392.75L196 257.869L198 257.869L198 392.75L196 392.75Z" fill="white"/>
<path fill-rule="evenodd" clip-rule="evenodd" d="M257.118 196.75L392 196.75L392 198.75L257.118 198.75L257.118 196.75Z" fill="white"/>
<path fill-rule="evenodd" clip-rule="evenodd" d="M-0.000961129 196.75L134.881 196.75L134.881 198.75L-0.000961304 198.75L-0.000961129 196.75Z" fill="white"/>
<path fill-rule="evenodd" clip-rule="evenodd" d="M339.152 336.384L382.707 379.94L381.293 381.354L337.737 337.798L339.152 336.384Z" fill="white"/>
<path fill-rule="evenodd" clip-rule="evenodd" d="M14.7524 13.3952L59.713 58.3558L58.2988 59.77L13.3382 14.8094L14.7524 13.3952Z" fill="white"/>
<path fill-rule="evenodd" clip-rule="evenodd" d="M59.0128 337.087L15.4572 380.642L14.043 379.228L57.5986 335.672L59.0128 337.087Z" fill="white"/>
<path fill-rule="evenodd" clip-rule="evenodd" d="M382.004 12.6924L337.043 57.653L335.629 56.2388L380.59 11.2782L382.004 12.6924Z" fill="white"/>
<path d="M218.481 197.453C218.481 209.092 209.045 218.528 197.405 218.528C185.766 218.528 176.33 209.092 176.33 197.453C176.33 185.813 185.766 176.377 197.405 176.377C209.045 176.377 218.481 185.813 218.481 197.453Z" fill="#FF304D"/>
</svg>
