<svg width="373" height="365" viewBox="0 0 373 365" fill="none" xmlns="http://www.w3.org/2000/svg">
<path fill-rule="evenodd" clip-rule="evenodd" d="M188.457 189.796C202.755 189.796 214.346 178.205 214.346 163.908C214.346 149.61 202.755 138.019 188.457 138.019C174.159 138.019 162.568 149.61 162.568 163.908C162.568 178.205 174.159 189.796 188.457 189.796ZM188.457 191.796C203.86 191.796 216.346 179.31 216.346 163.908C216.346 148.505 203.86 136.019 188.457 136.019C173.055 136.019 160.568 148.505 160.568 163.908C160.568 179.31 173.055 191.796 188.457 191.796Z" fill="white"/>
<path fill-rule="evenodd" clip-rule="evenodd" d="M188.457 53.7775C202.755 53.7775 214.346 42.1867 214.346 27.8887C214.346 13.5908 202.755 2 188.457 2C174.159 2 162.568 13.5908 162.568 27.8887C162.568 42.1867 174.159 53.7775 188.457 53.7775ZM188.457 55.7775C203.86 55.7775 216.346 43.2913 216.346 27.8887C216.346 12.4862 203.86 0 188.457 0C173.055 0 160.568 12.4862 160.568 27.8887C160.568 43.2913 173.055 55.7775 188.457 55.7775Z" fill="white"/>
<path fill-rule="evenodd" clip-rule="evenodd" d="M27.9747 121.298C42.2726 121.298 53.8634 109.707 53.8634 95.4089C53.8634 81.1109 42.2726 69.5201 27.9747 69.5201C13.6767 69.5201 2.08594 81.1109 2.08594 95.4089C2.08594 109.707 13.6767 121.298 27.9747 121.298ZM27.9747 123.298C43.3772 123.298 55.8634 110.811 55.8634 95.4089C55.8634 80.0064 43.3772 67.5201 27.9747 67.5201C12.5722 67.5201 0.0859375 80.0064 0.0859375 95.4089C0.0859375 110.811 12.5722 123.298 27.9747 123.298Z" fill="white"/>
<path fill-rule="evenodd" clip-rule="evenodd" d="M27.9747 302.33C42.2726 302.33 53.8634 290.739 53.8634 276.441C53.8634 262.143 42.2726 250.552 27.9747 250.552C13.6767 250.552 2.08594 262.143 2.08594 276.441C2.08594 290.739 13.6767 302.33 27.9747 302.33ZM27.9747 304.33C43.3772 304.33 55.8634 291.844 55.8634 276.441C55.8634 261.038 43.3772 248.552 27.9747 248.552C12.5722 248.552 0.0859375 261.038 0.0859375 276.441C0.0859375 291.844 12.5722 304.33 27.9747 304.33Z" fill="white"/>
<path fill-rule="evenodd" clip-rule="evenodd" d="M345.025 302.33C359.323 302.33 370.914 290.739 370.914 276.441C370.914 262.143 359.323 250.552 345.025 250.552C330.728 250.552 319.137 262.143 319.137 276.441C319.137 290.739 330.728 302.33 345.025 302.33ZM345.025 304.33C360.428 304.33 372.914 291.844 372.914 276.441C372.914 261.038 360.428 248.552 345.025 248.552C329.623 248.552 317.137 261.038 317.137 276.441C317.137 291.844 329.623 304.33 345.025 304.33Z" fill="white"/>
<path fill-rule="evenodd" clip-rule="evenodd" d="M53.9062 86.1126L164.483 38.1635L165.278 39.9984L54.7019 87.9475L53.9062 86.1126Z" fill="white"/>
<path fill-rule="evenodd" clip-rule="evenodd" d="M212.432 153.633L323.008 105.684L323.804 107.519L213.227 155.468L212.432 153.633Z" fill="white"/>
<path fill-rule="evenodd" clip-rule="evenodd" d="M28.4639 248.552L28.4639 123.298L30.4639 123.298L30.4639 248.552L28.4639 248.552Z" fill="white"/>
<path fill-rule="evenodd" clip-rule="evenodd" d="M188.011 191.796L188.011 195.892L186.011 195.892L186.011 191.796L188.011 191.796ZM188.011 204.373L188.011 210.565L186.011 210.565L186.011 204.373L188.011 204.373ZM188.011 219.046L188.011 225.238L186.011 225.238L186.011 219.046L188.011 219.046ZM188.011 233.719L188.011 239.911L186.011 239.911L186.011 233.719L188.011 233.719ZM188.011 248.392L188.011 254.584L186.011 254.584L186.011 248.392L188.011 248.392ZM188.011 263.065L188.011 269.257L186.011 269.257L186.011 263.065L188.011 263.065ZM188.011 277.738L188.011 283.93L186.011 283.93L186.011 277.738L188.011 277.738ZM188.011 292.411L188.011 298.603L186.011 298.603L186.011 292.411L188.011 292.411ZM188.011 307.084L188.011 311.18L186.011 311.18L186.011 307.084L188.011 307.084Z" fill="white"/>
<path fill-rule="evenodd" clip-rule="evenodd" d="M210.475 333.686L321.051 285.737L321.847 287.572L211.27 335.521L210.475 333.686Z" fill="white"/>
<path fill-rule="evenodd" clip-rule="evenodd" d="M160.568 333.686L53.906 288.673L54.6836 286.83L161.346 331.844L160.568 333.686Z" fill="white"/>
<path fill-rule="evenodd" clip-rule="evenodd" d="M320.072 83.177L213.41 38.1636L214.188 36.3209L320.85 81.3343L320.072 83.177Z" fill="white"/>
<path fill-rule="evenodd" clip-rule="evenodd" d="M160.569 157.547L50.9708 108.619L51.7861 106.793L161.384 155.721L160.569 157.547Z" fill="white"/>
<path d="M372.914 95.4089C372.914 110.811 360.428 123.298 345.025 123.298C329.623 123.298 317.137 110.811 317.137 95.4089C317.137 80.0064 329.623 67.5201 345.025 67.5201C360.428 67.5201 372.914 80.0064 372.914 95.4089Z" fill="#FF304D"/>
<path d="M216.346 337.111C216.346 352.514 203.86 365 188.457 365C173.055 365 160.568 352.514 160.568 337.111C160.568 321.709 173.055 309.223 188.457 309.223C203.86 309.223 216.346 321.709 216.346 337.111Z" fill="#FF304D"/>
</svg>
