<svg width="385" height="385" viewBox="0 0 385 385" fill="none" xmlns="http://www.w3.org/2000/svg">
<path d="M309.069 103.201C299.978 93.9325 281.477 75.1816 280.194 74.3261L319.228 65.7705L309.069 103.201Z" fill="#171717"/>
<path fill-rule="evenodd" clip-rule="evenodd" d="M71.6536 313.348L297.306 86.6253L298.724 88.0361L73.0711 314.758L71.6536 313.348Z" fill="#171717"/>
<path fill-rule="evenodd" clip-rule="evenodd" d="M192.5 385L192.5 8.74228e-08L194.5 0L194.5 385L192.5 385Z" fill="#171717"/>
<path fill-rule="evenodd" clip-rule="evenodd" d="M385 192.5L0 192.5L0 190.5L385 190.5V192.5Z" fill="#171717"/>
<path d="M142.237 268.43C142.237 283.196 130.267 295.167 115.501 295.167C100.735 295.167 88.7647 283.196 88.7647 268.43C88.7647 253.665 100.735 241.694 115.501 241.694C130.267 241.694 142.237 253.665 142.237 268.43Z" fill="#FF304D"/>
</svg>
