<svg width="349" height="255" viewBox="0 0 349 255" fill="none" xmlns="http://www.w3.org/2000/svg">
<path fill-rule="evenodd" clip-rule="evenodd" d="M31.5986 61.1973C47.9455 61.1973 61.1973 47.9455 61.1973 31.5986C61.1973 15.2518 47.9455 2 31.5986 2C15.2518 2 2 15.2518 2 31.5986C2 47.9455 15.2518 61.1973 31.5986 61.1973ZM31.5986 63.1973C49.0501 63.1973 63.1973 49.0501 63.1973 31.5986C63.1973 14.1472 49.0501 0 31.5986 0C14.1472 0 0 14.1472 0 31.5986C0 49.0501 14.1472 63.1973 31.5986 63.1973Z" fill="white"/>
<path fill-rule="evenodd" clip-rule="evenodd" d="M31.5986 155.522C47.9455 155.522 61.1973 142.27 61.1973 125.923C61.1973 109.576 47.9455 96.3242 31.5986 96.3242C15.2518 96.3242 2 109.576 2 125.923C2 142.27 15.2518 155.522 31.5986 155.522ZM31.5986 157.522C49.0501 157.522 63.1973 143.374 63.1973 125.923C63.1973 108.471 49.0501 94.3242 31.5986 94.3242C14.1472 94.3242 0 108.471 0 125.923C0 143.374 14.1472 157.522 31.5986 157.522Z" fill="white"/>
<path fill-rule="evenodd" clip-rule="evenodd" d="M31.5986 252.676C47.9455 252.676 61.1973 239.424 61.1973 223.077C61.1973 206.73 47.9455 193.478 31.5986 193.478C15.2518 193.478 2 206.73 2 223.077C2 239.424 15.2518 252.676 31.5986 252.676ZM31.5986 254.676C49.0501 254.676 63.1973 240.528 63.1973 223.077C63.1973 205.625 49.0501 191.478 31.5986 191.478C14.1472 191.478 0 205.625 0 223.077C0 240.528 14.1472 254.676 31.5986 254.676Z" fill="white"/>
<path fill-rule="evenodd" clip-rule="evenodd" d="M126.866 61.1973C143.213 61.1973 156.465 47.9455 156.465 31.5986C156.465 15.2518 143.213 2 126.866 2C110.519 2 97.2676 15.2518 97.2676 31.5986C97.2676 47.9455 110.519 61.1973 126.866 61.1973ZM126.866 63.1973C144.318 63.1973 158.465 49.0501 158.465 31.5986C158.465 14.1472 144.318 0 126.866 0C109.415 0 95.2676 14.1472 95.2676 31.5986C95.2676 49.0501 109.415 63.1973 126.866 63.1973Z" fill="white"/>
<path d="M158.465 125.923C158.465 143.374 144.318 157.522 126.866 157.522C109.415 157.522 95.2676 143.374 95.2676 125.923C95.2676 108.471 109.415 94.3242 126.866 94.3242C144.318 94.3242 158.465 108.471 158.465 125.923Z" fill="#FF304D"/>
<path d="M158.465 223.077C158.465 240.528 144.318 254.676 126.866 254.676C109.415 254.676 95.2676 240.528 95.2676 223.077C95.2676 205.625 109.415 191.478 126.866 191.478C144.318 191.478 158.465 205.625 158.465 223.077Z" fill="#FF304D"/>
<path d="M253.732 31.5986C253.732 49.0501 239.585 63.1973 222.134 63.1973C204.682 63.1973 190.535 49.0501 190.535 31.5986C190.535 14.1472 204.682 0 222.134 0C239.585 0 253.732 14.1472 253.732 31.5986Z" fill="#FF304D"/>
<path d="M253.732 125.923C253.732 143.374 239.585 157.522 222.134 157.522C204.682 157.522 190.535 143.374 190.535 125.923C190.535 108.471 204.682 94.3242 222.134 94.3242C239.585 94.3242 253.732 108.471 253.732 125.923Z" fill="#FF304D"/>
<path fill-rule="evenodd" clip-rule="evenodd" d="M222.134 252.676C238.481 252.676 251.732 239.424 251.732 223.077C251.732 206.73 238.481 193.478 222.134 193.478C205.787 193.478 192.535 206.73 192.535 223.077C192.535 239.424 205.787 252.676 222.134 252.676ZM222.134 254.676C239.585 254.676 253.732 240.528 253.732 223.077C253.732 205.625 239.585 191.478 222.134 191.478C204.682 191.478 190.535 205.625 190.535 223.077C190.535 240.528 204.682 254.676 222.134 254.676Z" fill="white"/>
<path fill-rule="evenodd" clip-rule="evenodd" d="M317.401 61.1973C333.748 61.1973 347 47.9455 347 31.5986C347 15.2518 333.748 2 317.401 2C301.055 2 287.803 15.2518 287.803 31.5986C287.803 47.9455 301.055 61.1973 317.401 61.1973ZM317.401 63.1973C334.853 63.1973 349 49.0501 349 31.5986C349 14.1472 334.853 0 317.401 0C299.95 0 285.803 14.1472 285.803 31.5986C285.803 49.0501 299.95 63.1973 317.401 63.1973Z" fill="white"/>
<path fill-rule="evenodd" clip-rule="evenodd" d="M317.401 155.522C333.748 155.522 347 142.27 347 125.923C347 109.576 333.748 96.3242 317.401 96.3242C301.055 96.3242 287.803 109.576 287.803 125.923C287.803 142.27 301.055 155.522 317.401 155.522ZM317.401 157.522C334.853 157.522 349 143.374 349 125.923C349 108.471 334.853 94.3242 317.401 94.3242C299.95 94.3242 285.803 108.471 285.803 125.923C285.803 143.374 299.95 157.522 317.401 157.522Z" fill="white"/>
<path d="M349 223.077C349 240.528 334.853 254.676 317.401 254.676C299.95 254.676 285.803 240.528 285.803 223.077C285.803 205.625 299.95 191.478 317.401 191.478C334.853 191.478 349 205.625 349 223.077Z" fill="#FF304D"/>
</svg>
