<svg width="123" height="48" viewBox="0 0 123 48" fill="none" xmlns="http://www.w3.org/2000/svg">
<g clip-path="url(#clip0_5464_464)">
<path fill-rule="evenodd" clip-rule="evenodd" d="M13.5044 17.416L42.6298 40.8085H0.46875L13.5044 17.416Z" fill="white"/>
<path fill-rule="evenodd" clip-rule="evenodd" d="M12.7412 7.35672L22.7171 0.945312C30.1043 14.1741 37.4756 27.3748 44.8311 40.5476L12.7412 7.35672Z" fill="white"/>
<path fill-rule="evenodd" clip-rule="evenodd" d="M15.8934 13.1709L42.6294 40.8087L13.5039 17.4162L15.8934 13.1709Z" fill="#ACACAC"/>
<path fill-rule="evenodd" clip-rule="evenodd" d="M105.098 15.4092V27.1562H102.61V12.8632H102.981C107.067 12.8632 111.156 12.8632 115.242 12.8632C116.964 12.8632 118.38 12.1586 119.342 10.6478C119.723 10.0463 119.96 9.3596 120.032 8.64463C120.105 7.92966 120.011 7.2071 119.76 6.537C119.508 5.86689 119.105 5.26858 118.585 4.79179C118.064 4.31499 117.441 3.97348 116.768 3.79561C116.252 3.6553 115.722 3.58223 115.189 3.57813C111.481 3.55783 107.771 3.57813 104.063 3.56363C103.968 3.55171 103.872 3.57402 103.79 3.62682C103.709 3.67962 103.648 3.7597 103.617 3.85361C99.8983 11.5168 96.1757 19.1789 92.4494 26.8401L92.2699 27.1446L78.9033 1.01473H79.2483C79.9382 1.01473 80.6309 1.06692 81.3153 1.01473C81.8762 0.956733 82.1174 1.20321 82.3586 1.68458C85.3146 7.60205 88.2827 13.5166 91.2631 19.4283C91.594 20.0837 91.9221 20.7419 92.2783 21.4582C92.3624 21.2987 92.427 21.1943 92.4774 21.0812C94.2359 17.3608 96.0056 13.6433 97.7416 9.91124C99.0654 7.06656 100.35 4.19868 101.64 1.3366C101.673 1.22988 101.741 1.13832 101.832 1.07751C101.923 1.0167 102.031 0.990412 102.139 1.00313C106.692 1.01473 111.246 1.01473 115.8 1.00313C116.81 0.994722 117.813 1.1826 118.756 1.55699C119.579 1.86545 120.317 2.37567 120.907 3.04386C121.497 3.71206 121.922 4.51829 122.144 5.39339C122.703 7.19813 122.659 9.14492 122.018 10.9204C121.177 13.1416 119.654 14.6147 117.41 15.2207C116.859 15.3543 116.293 15.4147 115.727 15.4005C112.309 15.4179 108.893 15.4005 105.474 15.4005L105.098 15.4092Z" fill="white"/>
<path fill-rule="evenodd" clip-rule="evenodd" d="M68.0247 4.97293V5.28611C68.0247 9.3023 68.0247 13.3156 68.0247 17.3318C68.0541 18.5868 67.925 19.8404 67.6405 21.0609C66.8833 23.9839 65.1164 25.8977 62.2866 26.6894C59.841 27.3737 57.3534 27.4636 54.933 26.6894C52.0724 25.7614 50.3531 23.6823 49.7838 20.6172C49.5783 19.4113 49.4844 18.1879 49.5034 16.9635C49.5034 11.7942 49.5034 6.62484 49.5034 1.4555V1.03793H51.9882V1.4265C51.9882 7.05014 51.9929 12.6709 52.0022 18.2887C51.9579 19.741 52.3932 21.1656 53.2363 22.3281C53.9842 23.3319 55.0424 24.0401 56.2343 24.3347C58.0846 24.8509 60.0442 24.7618 61.8435 24.0796C63.9834 23.2647 65.136 21.5915 65.4417 19.2833C65.5085 18.7158 65.5376 18.1441 65.5287 17.5725C65.5287 12.2021 65.5287 6.83169 65.5287 1.4613V1.03504C65.6465 1.03504 65.739 1.01764 65.8316 1.01764C66.9113 1.01764 67.9883 1.01764 69.0652 1.01764C69.1597 1.00601 69.2552 1.02853 69.3354 1.08139C69.4157 1.13424 69.4758 1.21417 69.5056 1.30761C72.3849 7.43001 75.2717 13.5495 78.1661 19.6661C78.8504 21.116 79.5319 22.5659 80.2246 24.0158C80.2699 24.0963 80.2938 24.1879 80.2938 24.2811C80.2938 24.3743 80.2699 24.4658 80.2246 24.5464C79.8348 25.341 79.459 26.1471 79.0775 26.9474C79.0523 26.9967 79.0215 27.046 78.9626 27.1533L68.092 4.97003L68.0247 4.97293Z" fill="white"/>
<path d="M50.5723 32.9326H53.6573C56.0748 32.9326 57.7043 34.5391 57.7043 36.8357C57.7043 39.1323 56.0748 40.7417 53.6573 40.7417H50.5723V32.9326ZM53.604 40.0168C55.6093 40.0168 56.905 38.7003 56.905 36.827C56.905 34.9538 55.6093 33.6373 53.604 33.6373H51.3603V40.0168H53.604Z" fill="white"/>
<path d="M64.3369 32.9326H65.1362V40.7417H64.3369V32.9326Z" fill="white"/>
<path d="M77.7705 36.8273H78.5277V39.814C77.7501 40.482 76.7645 40.8354 75.754 40.8087C73.457 40.8087 71.7715 39.1239 71.7715 36.836C71.7715 34.5481 73.4542 32.8633 75.7652 32.8633C76.9095 32.8633 77.9023 33.2432 78.5698 33.9913L78.0818 34.5075C77.7825 34.2024 77.4262 33.9638 77.0346 33.8062C76.643 33.6486 76.2244 33.5754 75.8045 33.5911C73.9394 33.5911 72.568 34.9656 72.568 36.8273C72.568 38.6889 73.9394 40.0634 75.7932 40.0634C76.4979 40.0874 77.1912 39.8759 77.7705 39.4603V36.8273Z" fill="white"/>
<path d="M85.6455 32.9326H86.442V40.7417H85.6455V32.9326Z" fill="white"/>
<path d="M95.2262 33.6372H92.5703V32.9238H98.6787V33.6372H96.0227V40.7416H95.2262V33.6372Z" fill="white"/>
<path d="M109.165 38.6539H104.958L104.049 40.7417H103.208L106.66 32.9326H107.449L110.901 40.7417H110.06L109.165 38.6539ZM108.884 37.984L107.073 33.791L105.247 37.9869L108.884 37.984Z" fill="white"/>
<path d="M117.018 32.9326H117.817V40.0168H122.046V40.733H117.018V32.9326Z" fill="white"/>
<path d="M0.46875 43.2559H2.41512V43.6618H0.934308V44.9029H2.30013V45.3002H0.934308V46.9908H0.46875V43.2559Z" fill="#F8F9F9"/>
<path d="M4.15676 45.312V45.6716H2.83301V45.312H4.15676Z" fill="#F8F9F9"/>
<path d="M4.64123 46.492C4.82812 46.6134 5.04319 46.6806 5.26384 46.6863C5.606 46.6863 5.76867 46.5094 5.76867 46.2861C5.76867 46.0629 5.63405 45.9266 5.28628 45.7932C4.81792 45.6221 4.59916 45.3553 4.59916 45.0334C4.59916 44.6014 4.93851 44.2476 5.49382 44.2476C5.71705 44.2459 5.93705 44.3028 6.13326 44.4129L6.01547 44.7696C5.8552 44.6676 5.67079 44.6134 5.4826 44.613C5.20214 44.613 5.0507 44.7812 5.0507 44.9783C5.0507 45.1755 5.20495 45.3002 5.5415 45.4336C5.99303 45.6105 6.22301 45.8425 6.22301 46.2426C6.22301 46.7153 5.86963 47.0459 5.25263 47.0459C4.99847 47.0503 4.74744 46.9874 4.52344 46.8632L4.64123 46.492Z" fill="#F8F9F9"/>
<path d="M7.29186 45.5263C7.35636 45.4335 7.44611 45.3175 7.52183 45.2363L8.28467 44.3084H8.84559L7.85277 45.4103L8.99423 46.9907H8.43051L7.53585 45.7061L7.29466 45.9815V46.9907H6.8291V43.0557H7.29186V45.5263Z" fill="#F8F9F9"/>
<path d="M10.8757 46.9909L10.8364 46.6516C10.7445 46.7788 10.6245 46.8815 10.4865 46.9511C10.3484 47.0207 10.1963 47.0552 10.0427 47.0518C9.94088 47.0594 9.8386 47.0451 9.74234 47.0099C9.64607 46.9746 9.5579 46.9192 9.48335 46.847C9.40881 46.7748 9.34952 46.6875 9.30919 46.5905C9.26887 46.4935 9.24839 46.3889 9.24904 46.2833C9.24904 45.6338 9.80995 45.28 10.8084 45.2829V45.2365C10.8186 45.1535 10.8105 45.0692 10.7847 44.9899C10.7589 44.9106 10.716 44.8384 10.6593 44.7787C10.6026 44.719 10.5336 44.6733 10.4574 44.6451C10.3812 44.6169 10.2999 44.607 10.2194 44.6159C9.98059 44.617 9.74668 44.6862 9.54352 44.816L9.43695 44.4942C9.69118 44.337 9.98213 44.2548 10.2783 44.2564C11.072 44.2564 11.2627 44.816 11.2627 45.3525V46.3558C11.2591 46.5713 11.2742 46.7868 11.3076 46.9996L10.8757 46.9909ZM10.8056 45.6222C10.2895 45.6222 9.70618 45.7063 9.70618 46.2253C9.70203 46.287 9.71071 46.3488 9.73165 46.4067C9.75259 46.4646 9.7853 46.5172 9.82757 46.5609C9.86983 46.6046 9.92068 46.6384 9.97666 46.6601C10.0327 46.6817 10.0925 46.6907 10.1521 46.6864C10.289 46.6898 10.4234 46.6481 10.5358 46.5673C10.6483 46.4865 10.7329 46.3708 10.7775 46.2369C10.795 46.1866 10.8044 46.1337 10.8056 46.0803V45.6164V45.6222Z" fill="#F8F9F9"/>
<path d="M12.5671 43.5371V44.3085H13.243V44.6796H12.5671V46.1295C12.5671 46.463 12.6596 46.6515 12.9204 46.6515C13.015 46.6534 13.1094 46.6417 13.2009 46.6167L13.2233 46.982C13.0894 47.0315 12.9476 47.0541 12.8054 47.0487C12.711 47.0545 12.6166 47.039 12.5285 47.0035C12.4404 46.968 12.3607 46.9132 12.295 46.8429C12.1514 46.643 12.0863 46.3944 12.1127 46.1469V44.697H11.7061V44.3085H12.1071V43.6647L12.5671 43.5371Z" fill="#F8F9F9"/>
<path d="M14.3423 43.5371V44.3085H15.0182V44.6796H14.3423V46.1295C14.3423 46.463 14.4349 46.6515 14.6957 46.6515C14.7903 46.6538 14.8848 46.642 14.9762 46.6167L14.9986 46.982C14.8646 47.0315 14.7228 47.0541 14.5807 47.0487C14.4863 47.0541 14.392 47.0385 14.3039 47.003C14.2159 46.9675 14.1362 46.9129 14.0703 46.8429C13.929 46.642 13.865 46.3939 13.8908 46.1469V44.697H13.4785V44.3085H13.8824V43.6647L14.3423 43.5371Z" fill="#F8F9F9"/>
<path d="M16.8076 46.6489C16.9341 46.6564 17.061 46.6506 17.1863 46.6315C17.4585 46.5971 17.7135 46.4754 17.9155 46.2835C18.1722 46.0284 18.3357 45.6892 18.3782 45.3237H18.3614C18.2623 45.4491 18.1367 45.5494 17.9942 45.6168C17.8518 45.6841 17.6962 45.7168 17.5396 45.7122C17.4006 45.7153 17.2624 45.6885 17.1337 45.6337C17.0051 45.5789 16.8888 45.4972 16.7922 45.3937C16.6955 45.2903 16.6206 45.1673 16.5721 45.0325C16.5236 44.8977 16.5026 44.7539 16.5104 44.6103C16.5047 44.4446 16.5313 44.2794 16.5887 44.1245C16.646 43.9696 16.7328 43.8281 16.8439 43.7086C16.9551 43.5891 17.0884 43.4938 17.2358 43.4285C17.3833 43.3633 17.5419 43.3293 17.7023 43.3286C18.4147 43.3286 18.855 43.9289 18.855 44.8481C18.8709 45.1572 18.8259 45.4665 18.7228 45.7571C18.6196 46.0477 18.4604 46.3136 18.2548 46.5387C17.9754 46.8081 17.6193 46.9769 17.2395 47.02C17.0969 47.0452 16.9522 47.0549 16.8076 47.049V46.6489V46.6489ZM16.9787 44.5755C16.9689 44.6724 16.9789 44.7704 17.0081 44.863C17.0374 44.9557 17.0852 45.0409 17.1484 45.1132C17.2117 45.1854 17.289 45.243 17.3752 45.2823C17.4615 45.3216 17.5548 45.3416 17.649 45.3411C17.7853 45.345 17.9203 45.3124 18.0407 45.2463C18.1611 45.1803 18.2629 45.083 18.3361 44.9641C18.3655 44.9102 18.38 44.849 18.3782 44.7872C18.3782 44.1695 18.1594 43.6998 17.6658 43.6998C17.262 43.6998 16.9787 44.0768 16.9787 44.5755Z" fill="#F8F9F9"/>
<path d="M19.2842 46.9908V46.7008L19.6516 46.3296C20.5434 45.4597 20.9445 44.9899 20.9501 44.4448C20.9597 44.3489 20.9482 44.2521 20.9165 44.1614C20.8849 44.0708 20.8339 43.9887 20.7673 43.9213C20.7007 43.8538 20.6203 43.8028 20.532 43.7719C20.4437 43.7411 20.3499 43.7312 20.2574 43.743C19.9841 43.7539 19.7228 43.8614 19.517 44.0475L19.3683 43.7024C19.6458 43.4648 19.9952 43.3354 20.3555 43.3371C20.4941 43.3242 20.6337 43.342 20.765 43.3893C20.8964 43.4366 21.0165 43.5123 21.1173 43.6113C21.2182 43.7104 21.2974 43.8305 21.3499 43.9637C21.4023 44.0969 21.4266 44.2402 21.4213 44.3839C21.4213 45.0508 20.9557 45.5873 20.2209 46.318L19.9404 46.5848H21.5026V46.9908H19.2842V46.9908Z" fill="#F8F9F9"/>
<path d="M24.346 45.1526C24.346 46.3763 23.9085 47.0519 23.1372 47.0519C22.4557 47.0519 21.9958 46.3937 21.9846 45.2019C21.9733 44.0101 22.4894 43.3286 23.1961 43.3286C23.9029 43.3286 24.346 44.0043 24.346 45.1526ZM22.4557 45.2077C22.4557 46.1443 22.7362 46.675 23.1625 46.675C23.6449 46.675 23.8748 46.095 23.8748 45.1729C23.8748 44.2507 23.6561 43.7056 23.1681 43.7056C22.7558 43.7056 22.4557 44.2275 22.4557 45.2077V45.2077Z" fill="#F8F9F9"/>
<path d="M25.802 43.8444L25.1962 44.1808L25.1064 43.8096L25.8665 43.3892H26.2703V46.9907H25.802V43.8444Z" fill="#F8F9F9"/>
<path d="M29.5212 43.7346C29.4021 43.7293 29.2828 43.7361 29.165 43.7549C28.8545 43.8001 28.5672 43.9504 28.348 44.1823C28.1288 44.4142 27.99 44.7146 27.9534 45.0366H27.9703C28.1108 44.8539 28.304 44.7222 28.5218 44.6606C28.7397 44.599 28.9708 44.6107 29.1817 44.6941C29.3927 44.7774 29.5725 44.9281 29.695 45.1242C29.8176 45.3203 29.8765 45.5517 29.8634 45.7848C29.8717 45.9476 29.848 46.1105 29.7936 46.2636C29.7392 46.4166 29.6553 46.5567 29.547 46.6752C29.4387 46.7937 29.3082 46.8882 29.1635 46.953C29.0187 47.0177 28.8628 47.0514 28.7051 47.052C27.9591 47.052 27.4711 46.4546 27.4711 45.518C27.461 45.2203 27.5081 44.9235 27.6097 44.6448C27.7113 44.3661 27.8653 44.1109 28.0628 43.8941C28.3688 43.5925 28.7638 43.4057 29.1847 43.3635C29.2987 43.3444 29.4141 43.3347 29.5296 43.3345V43.7346H29.5212ZM29.3866 45.8109C29.3866 45.2947 29.1061 44.9844 28.6686 44.9844C28.5275 44.9874 28.3898 45.0303 28.2706 45.1085C28.1514 45.1867 28.0553 45.2973 27.9927 45.4281C27.9554 45.4939 27.9369 45.5693 27.9394 45.6456C27.9394 46.2256 28.2199 46.675 28.7051 46.675C29.1117 46.6866 29.3866 46.327 29.3866 45.8167V45.8109Z" fill="#F8F9F9"/>
<path d="M30.3927 46.4313C30.6267 46.5739 30.8923 46.6518 31.1639 46.6574C31.7697 46.6574 31.9576 46.2602 31.952 45.9615C31.952 45.4569 31.5061 45.2394 31.0518 45.2394H30.7881V44.8741H31.0518C31.3939 44.8741 31.8286 44.6914 31.8286 44.2651C31.8286 43.9751 31.6519 43.7229 31.2172 43.7229C30.9679 43.7303 30.7262 43.813 30.5217 43.9606L30.3955 43.6069C30.6655 43.4204 30.9823 43.3197 31.307 43.3169C31.9941 43.3169 32.3054 43.7374 32.3054 44.1868C32.3016 44.3812 32.237 44.5691 32.1212 44.7223C32.0054 44.8755 31.8447 44.9857 31.6632 45.0365V45.0365C31.8785 45.0685 32.0755 45.1796 32.2181 45.3494C32.3608 45.5193 32.4395 45.7365 32.44 45.9615C32.44 46.5414 32.0053 47.0431 31.1695 47.0431C30.8519 47.0474 30.539 46.9633 30.2637 46.7995L30.3927 46.4313Z" fill="#F8F9F9"/>
<path d="M34.272 45.312V45.6716H32.9482V45.312H34.272Z" fill="#F8F9F9"/>
<path d="M36.6612 43.7346C36.543 43.7294 36.4247 43.7362 36.3078 43.7549C35.9973 43.8001 35.71 43.9504 35.4908 44.1823C35.2716 44.4142 35.1329 44.7146 35.0963 45.0366H35.1131C35.2536 44.8539 35.4468 44.7222 35.6646 44.6606C35.8825 44.599 36.1136 44.6107 36.3245 44.6941C36.5355 44.7774 36.7153 44.9281 36.8378 45.1242C36.9604 45.3203 37.0193 45.5517 37.0062 45.7848C37.0145 45.9476 36.9908 46.1105 36.9364 46.2636C36.882 46.4166 36.7981 46.5567 36.6898 46.6752C36.5815 46.7937 36.451 46.8882 36.3063 46.953C36.1615 47.0177 36.0056 47.0514 35.8479 47.052C35.1019 47.052 34.6167 46.4546 34.6167 45.518C34.6062 45.2205 34.6529 44.9239 34.754 44.6451C34.8551 44.3664 35.0086 44.1112 35.2056 43.8941C35.5117 43.5925 35.9066 43.4057 36.3275 43.3635C36.4406 43.3445 36.555 43.3348 36.6696 43.3345V43.7346H36.6612ZM36.5294 45.8109C36.5294 45.2947 36.2489 44.9844 35.8114 44.9844C35.6703 44.9877 35.5328 45.0307 35.4137 45.1089C35.2946 45.1871 35.1984 45.2975 35.1355 45.4281C35.0982 45.4939 35.0797 45.5693 35.0822 45.6456C35.0822 46.2256 35.3627 46.675 35.8479 46.675C36.2545 46.6866 36.5294 46.327 36.5294 45.8167V45.8109Z" fill="#F8F9F9"/>
<path d="M38.4475 43.8444L37.8417 44.1808L37.752 43.8096L38.512 43.3892H38.913V46.9907H38.4587V43.8444H38.4475Z" fill="#F8F9F9"/>
<path d="M40.2844 46.4313C40.5188 46.573 40.7842 46.6509 41.0557 46.6574C41.6615 46.6574 41.8494 46.2602 41.8437 45.9615C41.8437 45.4569 41.3978 45.2394 40.9435 45.2394H40.6799V44.8741H40.9463C41.2884 44.8741 41.7232 44.6914 41.7232 44.2651C41.7232 43.9751 41.5465 43.7229 41.1146 43.7229C40.8643 43.7299 40.6215 43.8126 40.4162 43.9606L40.2928 43.6069C40.5624 43.4195 40.8795 43.3186 41.2043 43.3169C41.8886 43.3169 42.1999 43.7374 42.1999 44.1868C42.1966 44.3813 42.1321 44.5694 42.0163 44.7227C41.9004 44.876 41.7394 44.9861 41.5577 45.0365C41.773 45.0685 41.97 45.1796 42.1127 45.3494C42.2553 45.5193 42.3341 45.7365 42.3345 45.9615C42.3345 46.5414 41.8998 47.0431 41.0641 47.0431C40.7465 47.047 40.4337 46.9629 40.1582 46.7995L40.2844 46.4313Z" fill="#F8F9F9"/>
<path d="M42.9102 46.9908V46.7008L43.2804 46.3296C44.1694 45.4597 44.5733 44.9899 44.5789 44.4448C44.5879 44.349 44.5761 44.2524 44.5442 44.162C44.5124 44.0717 44.4614 43.9898 44.3949 43.9225C44.3285 43.8552 44.2483 43.8041 44.1602 43.7731C44.0722 43.742 43.9785 43.7317 43.8861 43.743C43.6128 43.7535 43.3513 43.861 43.1457 44.0475L42.9971 43.7024C43.2737 43.4652 43.6221 43.3359 43.9815 43.3371C44.1202 43.3242 44.2599 43.342 44.3914 43.3893C44.5229 43.4365 44.6431 43.5122 44.7442 43.6112C44.8453 43.7102 44.9248 43.8303 44.9775 43.9635C45.0303 44.0967 45.055 44.24 45.05 44.3839C45.05 45.0508 44.5817 45.5873 43.8469 46.318L43.5664 46.5848H45.1538V46.9908H42.9102V46.9908Z" fill="#F8F9F9"/>
</g>
<defs>
<clipPath id="clip0_5464_464">
<rect width="123" height="48" fill="white"/>
</clipPath>
</defs>
</svg>
