<svg width="376" height="376" viewBox="0 0 376 376" fill="none" xmlns="http://www.w3.org/2000/svg">
<path fill-rule="evenodd" clip-rule="evenodd" d="M205 53H144C78.2781 53 25 106.278 25 172V233C25 298.722 78.2781 352 144 352H205C270.722 352 324 298.722 324 233V172C324 106.278 270.722 53 205 53ZM144 51C77.1736 51 23 105.174 23 172V233C23 299.826 77.1735 354 144 354H205C271.826 354 326 299.826 326 233V172C326 105.174 271.826 51 205 51H144Z" fill="white"/>
<path fill-rule="evenodd" clip-rule="evenodd" d="M217.81 323.926C229.025 292.434 236 248.796 236 200.5C236 152.204 229.025 108.566 217.81 77.0737C212.199 61.3188 205.565 48.7108 198.298 40.0798C191.023 31.4391 183.31 27 175.5 27C167.69 27 159.977 31.4391 152.702 40.0798C145.435 48.7108 138.801 61.3188 133.19 77.0737C121.975 108.566 115 152.204 115 200.5C115 248.796 121.975 292.434 133.19 323.926C138.801 339.681 145.435 352.289 152.702 360.92C159.977 369.561 167.69 374 175.5 374C183.31 374 191.023 369.561 198.298 360.92C205.565 352.289 212.199 339.681 217.81 323.926ZM175.5 376C210.018 376 238 297.426 238 200.5C238 103.574 210.018 25 175.5 25C140.982 25 113 103.574 113 200.5C113 297.426 140.982 376 175.5 376Z" fill="white"/>
<path fill-rule="evenodd" clip-rule="evenodd" d="M298.926 158.19C267.434 146.975 223.796 140 175.5 140C127.204 140 83.5661 146.975 52.0737 158.19C36.3188 163.801 23.7108 170.435 15.0798 177.702C6.43912 184.977 2 192.69 2 200.5C2 208.31 6.43912 216.023 15.0798 223.298C23.7108 230.565 36.3188 237.199 52.0737 242.81C83.5661 254.025 127.204 261 175.5 261C223.796 261 267.434 254.025 298.926 242.81C314.681 237.199 327.289 230.565 335.92 223.298C344.561 216.023 349 208.31 349 200.5C349 192.69 344.561 184.977 335.92 177.702C327.289 170.435 314.681 163.801 298.926 158.19ZM351 200.5C351 165.982 272.426 138 175.5 138C78.574 138 -4.24078e-06 165.982 -2.73196e-06 200.5C-1.22314e-06 235.018 78.574 263 175.5 263C272.426 263 351 235.018 351 200.5Z" fill="white"/>
<path d="M376 60.5C376 93.9132 348.913 121 315.5 121C282.087 121 255 93.9132 255 60.5C255 27.0868 282.087 0 315.5 0C348.913 0 376 27.0868 376 60.5Z" fill="#FF304D"/>
<path fill-rule="evenodd" clip-rule="evenodd" d="M297.293 46.293L298.707 47.7072L284.914 61.5001L298.707 75.293L297.293 76.7072L282.086 61.5001L297.293 46.293Z" fill="white"/>
<path fill-rule="evenodd" clip-rule="evenodd" d="M332.707 76.707L331.293 75.2928L345.086 61.4999L331.293 47.707L332.707 46.2928L347.914 61.4999L332.707 76.707Z" fill="white"/>
<path fill-rule="evenodd" clip-rule="evenodd" d="M306 86L325 35L326.874 35.6982L307.874 86.6982L306 86Z" fill="white"/>
</svg>
