<svg width="370" height="288" viewBox="0 0 370 288" fill="none" xmlns="http://www.w3.org/2000/svg">
<path fill-rule="evenodd" clip-rule="evenodd" d="M185 265L185 23L187 23L187 265L185 265Z" fill="white"/>
<path fill-rule="evenodd" clip-rule="evenodd" d="M306 144L64 144V142L306 142V144Z" fill="white"/>
<path fill-rule="evenodd" clip-rule="evenodd" d="M164.993 121.971L49.4416 10.4826C31.6632 -6.67086 2 5.92807 2 30.6326V256.217C2 281.077 31.9836 293.608 49.6732 276.141L165.224 162.045C176.417 150.993 176.312 132.893 164.993 121.971ZM50.8303 9.04326C31.7819 -9.33539 0 4.16347 0 30.6326V256.217C0 282.853 32.1253 296.279 51.0784 277.565L166.629 163.468C178.622 151.627 178.509 132.234 166.381 120.532L50.8303 9.04326Z" fill="white"/>
<path fill-rule="evenodd" clip-rule="evenodd" d="M204.507 166.029L320.058 277.517C337.837 294.671 367.5 282.072 367.5 257.367L367.5 31.7826C367.5 6.92264 337.516 -5.60837 319.827 11.8586L204.276 125.955C193.083 137.007 193.188 155.107 204.507 166.029ZM318.67 278.957C337.718 297.335 369.5 283.837 369.5 257.367L369.5 31.7826C369.5 5.14691 337.375 -8.27914 318.422 10.4354L202.871 124.532C190.878 136.373 190.991 155.766 203.119 167.468L318.67 278.957Z" fill="white"/>
<path d="M209 143C209 156.255 198.255 167 185 167C171.745 167 161 156.255 161 143C161 129.745 171.745 119 185 119C198.255 119 209 129.745 209 143Z" fill="#FF304D"/>
</svg>
