<svg width="15" height="20" viewBox="0 0 15 20" fill="none" xmlns="http://www.w3.org/2000/svg">
<path d="M3.90636 19.474C6.66579 20.702 9.91241 19.455 11.1382 16.6964L14.5421 9.05503C14.5643 9.00523 14.5646 8.94924 14.5451 8.89844C14.5256 8.84765 14.4879 8.80629 14.4381 8.78413L13.3571 8.30312C13.3078 8.28129 13.2518 8.27989 13.2014 8.29924C13.1511 8.31859 13.1104 8.3571 13.0884 8.40635L9.68448 16.0477C9.26213 16.9968 8.49464 17.7239 7.52531 18.0962C6.55598 18.4685 5.4991 18.4421 4.55211 18.0189C3.603 17.5966 2.87592 16.8291 2.50443 15.8619C2.13212 14.8926 2.15931 13.8378 2.58165 12.8887L6.0499 5.09879L6.61173 3.83624C7.13706 2.65572 8.52333 2.12328 9.70385 2.64861C10.2751 2.9028 10.7121 3.36398 10.9364 3.94811C11.1608 4.53225 11.1449 5.16739 10.8907 5.73861L7.4498 13.467C7.36165 13.6612 7.20548 13.811 7.00654 13.8874L7.00442 13.8882C6.80547 13.9646 6.59127 13.957 6.39793 13.871C6.20167 13.7837 6.05394 13.6267 5.97753 13.4277C5.90193 13.2309 5.9087 13.0146 5.99474 12.8213L8.80811 6.50692C8.83027 6.45712 8.83062 6.40112 8.81111 6.35033C8.79161 6.29954 8.75386 6.25817 8.70406 6.23601L7.62314 5.755C7.57379 5.73317 7.5178 5.73178 7.46743 5.75113C7.41706 5.77048 7.3764 5.80899 7.35435 5.85824L4.5439 12.1739C4.2845 12.7568 4.26841 13.4042 4.49683 13.9989C4.72525 14.5936 5.17348 15.065 5.75349 15.3231C6.95744 15.8589 8.37041 15.3138 8.90698 14.1119L9.23988 13.3599L12.3457 6.38436C12.5573 5.91278 12.673 5.4039 12.6864 4.88724C12.6997 4.37057 12.6104 3.8564 12.4235 3.37453C12.0471 2.39462 11.3104 1.6211 10.3525 1.19484C9.3603 0.755058 8.28322 0.758304 7.34352 1.11923C6.40382 1.48015 5.6015 2.19876 5.1609 3.18887L1.12871 12.2421C0.536405 13.5771 0.496487 15.0666 1.0208 16.4317C1.54382 17.7998 2.57059 18.8796 3.90636 19.474Z" fill="#F8F8F8"/>
</svg>
