<svg width="40" height="30" viewBox="0 0 40 30" fill="none" xmlns="http://www.w3.org/2000/svg">
<path d="M30.9294 3.39656C26.6419 3.41719 23.3831 6.25281 22.1631 10.7716C20.1162 7.62156 18.5194 4.01844 17.6038 0.976562L13.0912 0.997813L13.1537 12.9591C13.1564 13.5222 13.0481 14.0803 12.8351 14.6016C12.6221 15.1229 12.3085 15.5971 11.9122 15.9972C11.5158 16.3972 11.0446 16.7153 10.5254 16.9333C10.0061 17.1513 9.44906 17.2648 8.88594 17.2675C7.74866 17.2729 6.65581 16.8263 5.84783 16.0259C5.44775 15.6296 5.12965 15.1584 4.91169 14.6391C4.69372 14.1199 4.58017 13.5628 4.5775 12.9997L4.515 1.03844L0 1.06031L0.0625 13.0222C0.08 17.9859 4.04625 21.9191 8.9 21.8941C13.7537 21.8691 17.6844 17.9028 17.6625 12.9378L17.6531 10.9066C18.5631 12.7066 19.7006 14.6191 20.9506 16.3066L18.1912 29.5216L22.8162 29.5003L24.8038 19.8991C26.6138 21.0197 28.6475 21.6866 31.0163 21.6753C35.9813 21.6534 40.025 17.5734 40 12.3816C39.9775 7.41531 35.895 3.37344 30.93 3.39594L30.9294 3.39656ZM30.9937 17.0503C29.1887 17.0584 27.38 16.2778 25.9075 15.0422L26.35 13.2297V13.1159C26.68 11.1947 27.6787 7.91844 31.0637 7.90344C32.2599 7.90126 33.4083 8.3725 34.2581 9.21425C35.1079 10.056 35.5901 11.1998 35.5994 12.3959C35.4975 14.9916 33.3638 17.0334 30.9931 17.0441L30.9937 17.0503Z" fill="#171717"/>
</svg>
